<svg version="1.1" xmlns="http://www.w3.org/2000/svg" xmlns:xlink="http://www.w3.org/1999/xlink" x="0px" y="0px" viewBox="0 0 1000 1000" enable-background="new 0 0 1000 1000" xml:space="preserve">
<g fill="#DAA520">><path d="M988.7,527.6c-7.6-83.9-47.5-164.6-114.4-223.3c-39.1-34.3-84.4-61.1-133-80.6c-6.3,9.1-13.5,17.7-21.8,25.6c-10.9,10.4-23.1,19.3-36.4,26.4c14.1,4.4,27.6,9.5,40.6,15.3c13.2,5.9,18.3,21.4,11,33.5c-6.4,10.7-20.5,14.9-32.2,9.6c-88.6-39.9-187.5-32.4-230.9-26.2c-12.8,1.8-25-6-28-17.9v-0.1c-3.4-13.5,6.1-27,20.5-29.1c7.9-1.2,17.4-2.3,28.1-3.3c-3.2-2.7-6.3-5.4-9.3-8.2c-15.3-14.6-27.4-31.7-35.9-50.8c-0.9-2-1.8-4.1-2.5-6.1c-13.2,2.1-26.3,4.8-39.1,7.8c-74.4-41.3-163.6-41.4-216.7-36.4c-23.1,2.1-36.7,25.6-26.7,45.6l45,88c-50,41.5-87.7,92.4-108.9,149.1l-54.8-0.2C25,446,10,460.3,10,477.9v117.4c0,11.9,6.9,22.7,17.9,28.2L99,658.8c29.7,78.3,91.4,145.5,172.6,191.8v104c0,20.4,17.4,37.1,38.9,37.1h99.7c15.4,0,29.4-8.8,35.6-22.3l25-54.8c21.5,2.5,43.4,3.8,65.8,3.8c35.3,0,69.6-3.2,102.6-9.2v45.4c0,20.4,17.4,37.1,38.9,37.1h99.2c14.3,0,27.5-7.5,34.3-19.6c52.8-94.7,110.2-189.8,152.6-289C985.6,632.9,993.4,579.6,988.7,527.6z M277.9,501.5c-27.6,0-49.9-21.3-49.9-47.7c0-26.4,22.3-47.7,49.9-47.7c27.6,0,50,21.3,50,47.7C327.9,480.2,305.6,501.5,277.9,501.5z M552,255.2c15.2,5.7,31.9,8.9,49.3,8.9c8.5,0,16.9-0.7,24.9-2.2c34-6.1,63.4-24.4,83-49.9c16.3-21.2,26-47.4,26-75.8C735.3,65.5,675.2,8.3,601.3,8.3c-74,0-134,57.2-134,127.9c0,18.3,4,35.7,11.3,51.5C492.7,218.5,519.3,242.8,552,255.2z"/></g>
</svg>